<?xml version="1.0" standalone="no"?>
<!DOCTYPE svg PUBLIC "-//W3C//DTD SVG 20010904//EN"
 "http://www.w3.org/TR/2001/REC-SVG-20010904/DTD/svg10.dtd">
<svg version="1.0" xmlns="http://www.w3.org/2000/svg"
 width="260.000000pt" height="260.000000pt" viewBox="0 0 260.000000 260.000000"
 preserveAspectRatio="xMidYMid meet">
<metadata>
Created by potrace 1.11, written by Peter Selinger 2001-2013
</metadata>
<g transform="translate(0.000000,260.000000) scale(0.100000,-0.100000)"
fill="#000000" stroke="none">
<path d="M0 1300 l0 -1300 1300 0 1300 0 0 1300 0 1300 -1300 0 -1300 0 0
-1300z m1184 811 c3 -5 -21 -18 -54 -30 -89 -32 -152 -87 -188 -163 -28 -60
-59 -184 -48 -195 13 -13 246 81 461 187 176 86 254 130 292 164 l51 46 7 -42
c9 -54 35 -106 69 -137 35 -33 117 -36 140 -6 21 28 20 61 -5 94 -22 29 -19
51 6 51 19 0 44 -81 55 -180 22 -193 -42 -359 -162 -421 -21 -11 -38 -23 -38
-28 0 -5 24 -12 52 -15 66 -9 104 -27 155 -74 62 -57 87 -112 92 -206 4 -91
-11 -172 -43 -231 -36 -68 -91 -139 -147 -189 -80 -72 -140 -108 -289 -174
-114 -51 -333 -68 -480 -37 -84 17 -219 79 -296 136 -124 91 -229 238 -281
394 -25 74 -27 92 -26 235 0 137 3 165 26 236 54 175 137 296 288 419 33 28
154 97 214 124 28 12 64 28 80 36 35 16 62 19 69 6z"/>
<path d="M1383 1902 c-10 -6 -13 -118 -15 -481 l-3 -474 -130 -42 c-180 -59
-266 -85 -282 -85 -39 0 -12 -86 47 -154 108 -123 287 -170 455 -118 l60 18 3
609 2 609 -28 30 c-16 17 -39 46 -51 64 -23 32 -36 38 -58 24z"/>
<path d="M1928 1873 c-55 -126 -193 -175 -331 -119 -42 18 -60 21 -63 12 -2
-6 -3 -84 -2 -171 l3 -160 80 0 c66 0 90 5 137 27 72 34 137 98 173 172 24 49
29 74 33 162 3 75 1 104 -7 104 -6 0 -17 -12 -23 -27z"/>
<path d="M965 1716 c-33 -11 -66 -25 -73 -29 -20 -14 -17 -648 5 -755 9 -46
22 -86 29 -89 7 -3 36 3 64 12 l50 17 0 428 c0 236 -3 431 -7 433 -5 2 -35 -5
-68 -17z"/>
<path d="M1535 1412 c-11 -11 -5 -821 6 -827 13 -9 54 28 84 76 75 117 110
484 60 634 -19 58 -71 111 -115 117 -17 3 -32 2 -35 0z"/>
</g>
</svg>
