<svg x="0" y="0" width="300" height="300" version="1.1" xmlns="http://www.w3.org/2000/svg" xmlns:xlink="http://www.w3.org/1999/xlink"><g data-paper-data="{&quot;description&quot;:&quot;Logo for Giggles N Shit Blog\n============================\n\nThis logo was generated by MarkMaker and is composed of elements designed by others.\n\nThe font is Cutive Mono designed by Vernon Adams and released under the OFL license via Google Fonts: https://www.google.com/fonts/specimen/Cutive Mono. The font includes this copyright statement: Copyright (c) 2012 by vernon adams (vern@newtypography.co.uk), with Reserved Font Names 'Cutive'\n\nMarkMaker uses semantic data from the Princeton University WordNet database http://wordnet.princeton.edu and font descriptions from Google Fonts https://www.google.com/fonts.\n\nThis design is inspired by designs that past users of MarkMaker have liked. As a result, it may be visually similar to past or future designs generated by the system. There is no guarantee that it is unique, original, or suitable in any way for use as a logo.\n\n&quot;}" fill="none" stroke="none" stroke-width="none" stroke-linecap="butt" stroke-linejoin="miter" stroke-miterlimit="10" stroke-dasharray="" stroke-dashoffset="0" font-family="sans-serif" font-weight="normal" font-size="12" text-anchor="start" mix-blend-mode="normal"><path d="M6,294l0,-288l288,0l0,288z" fill="none" stroke="#416e6e" stroke-width="0.42"></path><g data-paper-data="{&quot;elementType&quot;:&quot;logo&quot;}" fill="#416e6e" stroke-width="1"><g data-paper-data="{&quot;elementType&quot;:&quot;text&quot;}"><g data-paper-data="{&quot;baseline&quot;:57.958984375,&quot;elementType&quot;:&quot;row&quot;}"><g data-paper-data="{&quot;baselineProportion&quot;:0.9858803986710963,&quot;fontSize&quot;:100,&quot;baseline&quot;:57.958984375,&quot;elementType&quot;:&quot;word&quot;}"><path d="M60.27559,93.79967l0,14.04129c0,0.54825 -0.14214,0.97467 -0.42642,1.27925c-0.28428,0.30458 -0.61932,0.45688 -1.00513,0.45688c-0.40611,0 -0.75638,-0.15737 -1.05081,-0.4721c-0.29443,-0.31474 -0.44165,-0.75638 -0.44165,-1.32494l0,-3.77683c-0.77161,1.72597 -2.22346,3.13213 -4.35554,4.21848c-2.13208,1.08635 -4.54845,1.62952 -7.24908,1.62952c-4.7312,0 -8.53849,-1.7209 -11.42188,-5.16269c-2.88339,-3.44179 -4.32508,-8.05623 -4.32508,-13.84331c0,-5.27945 1.44677,-9.54361 4.34031,-12.7925c2.89354,-3.24889 6.6856,-4.87333 11.37619,-4.87333c2.37575,0 4.5586,0.49241 6.54854,1.47723c1.98994,0.98482 3.40118,2.23869 4.23371,3.7616l0,-3.22858c0,-0.46703 0.14722,-0.8376 0.44165,-1.11173c0.29443,-0.27413 0.6447,-0.41119 1.05081,-0.41119c0.40611,0 0.75638,0.13706 1.05081,0.41119c0.29443,0.27413 0.44165,0.65485 0.44165,1.14219l0,8.92429c0,0.46703 -0.13706,0.82238 -0.41119,1.06604c-0.27413,0.24367 -0.60409,0.3655 -0.9899,0.3655c-0.81222,0 -1.29956,-0.47718 -1.462,-1.43154c-0.46703,-2.49758 -1.70059,-4.51291 -3.70069,-6.04598c-2.0001,-1.53307 -4.37077,-2.2996 -7.11202,-2.2996c-4.08142,0 -7.24908,1.40616 -9.503,4.21848c-2.25392,2.81232 -3.38088,6.4927 -3.38088,11.04115c0,4.99517 1.21833,8.93952 3.655,11.83306c2.43667,2.89354 5.50281,4.34031 9.19842,4.34031c3.02553,0 5.51804,-0.731 7.47752,-2.193c1.95949,-1.462 3.32504,-3.40118 4.09665,-5.81754l0,-5.42158l-3.77683,0c-0.46703,0 -0.8376,-0.13199 -1.11173,-0.39596c-0.27413,-0.26397 -0.41119,-0.57871 -0.41119,-0.94421c0,-0.34519 0.13199,-0.6447 0.39596,-0.89852c0.26397,-0.25382 0.62947,-0.38073 1.0965,-0.38073l8.65017,0c0.46703,0 0.83253,0.12691 1.0965,0.38073c0.26397,0.25382 0.39596,0.55333 0.39596,0.89852c0,0.3655 -0.13706,0.68024 -0.41119,0.94421c-0.27413,0.26397 -0.65485,0.39596 -1.14219,0.39596l-1.85796,0z" data-paper-data="{&quot;elementType&quot;:&quot;letter&quot;,&quot;baseline&quot;:57.958984375,&quot;baselineProportion&quot;:0.9858803986710963,&quot;fontSize&quot;:100}"></path><path d="M71.81735,109.33342c-0.48733,0 -0.86806,-0.12691 -1.14219,-0.38073c-0.27413,-0.25382 -0.41119,-0.56348 -0.41119,-0.92898c0,-0.34519 0.13706,-0.64978 0.41119,-0.91375c0.27413,-0.26397 0.6447,-0.39596 1.11173,-0.39596l9.28979,0l0,-30.42788l-9.28979,0c-0.46703,0 -0.8376,-0.12691 -1.11173,-0.38073c-0.27413,-0.25382 -0.41119,-0.55333 -0.41119,-0.89852c0,-0.3655 0.13706,-0.68024 0.41119,-0.94421c0.27413,-0.26397 0.65485,-0.39596 1.14219,-0.39596l20.86396,0c0.46703,0 0.8376,0.13199 1.11173,0.39596c0.27413,0.26397 0.41119,0.57871 0.41119,0.94421c0,0.34519 -0.13199,0.6447 -0.39596,0.89852c-0.26397,0.25382 -0.62947,0.38073 -1.0965,0.38073l-8.71108,0l0,30.42788l8.71108,0c0.46703,0 0.83253,0.13199 1.0965,0.39596c0.26397,0.26397 0.39596,0.56856 0.39596,0.91375c0,0.3655 -0.13199,0.67516 -0.39596,0.92898c-0.26397,0.25382 -0.63963,0.38073 -1.12696,0.38073l-20.86396,0z" data-paper-data="{&quot;elementType&quot;:&quot;letter&quot;,&quot;baseline&quot;:57.177734375,&quot;baselineProportion&quot;:1,&quot;fontSize&quot;:100}"></path><path d="M130.4477,93.79967l0,14.04129c0,0.54825 -0.14214,0.97467 -0.42642,1.27925c-0.28428,0.30458 -0.61932,0.45688 -1.00513,0.45688c-0.40611,0 -0.75638,-0.15737 -1.05081,-0.4721c-0.29443,-0.31474 -0.44165,-0.75638 -0.44165,-1.32494l0,-3.77683c-0.77161,1.72597 -2.22346,3.13213 -4.35554,4.21848c-2.13208,1.08635 -4.54845,1.62952 -7.24908,1.62952c-4.7312,0 -8.53849,-1.7209 -11.42188,-5.16269c-2.88339,-3.44179 -4.32508,-8.05623 -4.32508,-13.84331c0,-5.27945 1.44677,-9.54361 4.34031,-12.7925c2.89354,-3.24889 6.6856,-4.87333 11.37619,-4.87333c2.37575,0 4.5586,0.49241 6.54854,1.47723c1.98994,0.98482 3.40118,2.23869 4.23371,3.7616l0,-3.22858c0,-0.46703 0.14722,-0.8376 0.44165,-1.11173c0.29443,-0.27413 0.6447,-0.41119 1.05081,-0.41119c0.40611,0 0.75638,0.13706 1.05081,0.41119c0.29443,0.27413 0.44165,0.65485 0.44165,1.14219l0,8.92429c0,0.46703 -0.13706,0.82238 -0.41119,1.06604c-0.27413,0.24367 -0.60409,0.3655 -0.9899,0.3655c-0.81222,0 -1.29956,-0.47718 -1.462,-1.43154c-0.46703,-2.49758 -1.70059,-4.51291 -3.70069,-6.04598c-2.0001,-1.53307 -4.37077,-2.2996 -7.11202,-2.2996c-4.08142,0 -7.24908,1.40616 -9.503,4.21848c-2.25392,2.81232 -3.38088,6.4927 -3.38088,11.04115c0,4.99517 1.21833,8.93952 3.655,11.83306c2.43667,2.89354 5.50281,4.34031 9.19842,4.34031c3.02553,0 5.51804,-0.731 7.47752,-2.193c1.95949,-1.462 3.32504,-3.40118 4.09665,-5.81754l0,-5.42158l-3.77683,0c-0.46703,0 -0.8376,-0.13199 -1.11173,-0.39596c-0.27413,-0.26397 -0.41119,-0.57871 -0.41119,-0.94421c0,-0.34519 0.13199,-0.6447 0.39596,-0.89852c0.26397,-0.25382 0.62947,-0.38073 1.0965,-0.38073l8.65017,0c0.46703,0 0.83253,0.12691 1.0965,0.38073c0.26397,0.25382 0.39596,0.55333 0.39596,0.89852c0,0.3655 -0.13706,0.68024 -0.41119,0.94421c-0.27413,0.26397 -0.65485,0.39596 -1.14219,0.39596l-1.85796,0z" data-paper-data="{&quot;elementType&quot;:&quot;letter&quot;,&quot;baseline&quot;:57.958984375,&quot;baselineProportion&quot;:0.9858803986710963,&quot;fontSize&quot;:100}"></path><path d="M165.53375,93.79967l0,14.04129c0,0.54825 -0.14214,0.97467 -0.42642,1.27925c-0.28428,0.30458 -0.61932,0.45688 -1.00513,0.45688c-0.40611,0 -0.75638,-0.15737 -1.05081,-0.4721c-0.29443,-0.31474 -0.44165,-0.75638 -0.44165,-1.32494l0,-3.77683c-0.77161,1.72597 -2.22346,3.13213 -4.35554,4.21848c-2.13208,1.08635 -4.54845,1.62952 -7.24908,1.62952c-4.7312,0 -8.53849,-1.7209 -11.42188,-5.16269c-2.88339,-3.44179 -4.32508,-8.05623 -4.32508,-13.84331c0,-5.27945 1.44677,-9.54361 4.34031,-12.7925c2.89354,-3.24889 6.6856,-4.87333 11.37619,-4.87333c2.37575,0 4.5586,0.49241 6.54854,1.47723c1.98994,0.98482 3.40118,2.23869 4.23371,3.7616l0,-3.22858c0,-0.46703 0.14722,-0.8376 0.44165,-1.11173c0.29443,-0.27413 0.6447,-0.41119 1.05081,-0.41119c0.40611,0 0.75638,0.13706 1.05081,0.41119c0.29443,0.27413 0.44165,0.65485 0.44165,1.14219l0,8.92429c0,0.46703 -0.13706,0.82238 -0.41119,1.06604c-0.27413,0.24367 -0.60409,0.3655 -0.9899,0.3655c-0.81222,0 -1.29956,-0.47718 -1.462,-1.43154c-0.46703,-2.49758 -1.70059,-4.51291 -3.70069,-6.04598c-2.0001,-1.53307 -4.37077,-2.2996 -7.11202,-2.2996c-4.08142,0 -7.24908,1.40616 -9.503,4.21848c-2.25392,2.81232 -3.38088,6.4927 -3.38088,11.04115c0,4.99517 1.21833,8.93952 3.655,11.83306c2.43667,2.89354 5.50281,4.34031 9.19842,4.34031c3.02553,0 5.51804,-0.731 7.47752,-2.193c1.95949,-1.462 3.32504,-3.40118 4.09665,-5.81754l0,-5.42158l-3.77683,0c-0.46703,0 -0.8376,-0.13199 -1.11173,-0.39596c-0.27413,-0.26397 -0.41119,-0.57871 -0.41119,-0.94421c0,-0.34519 0.13199,-0.6447 0.39596,-0.89852c0.26397,-0.25382 0.62947,-0.38073 1.0965,-0.38073l8.65017,0c0.46703,0 0.83253,0.12691 1.0965,0.38073c0.26397,0.25382 0.39596,0.55333 0.39596,0.89852c0,0.3655 -0.13706,0.68024 -0.41119,0.94421c-0.27413,0.26397 -0.65485,0.39596 -1.14219,0.39596l-1.85796,0z" data-paper-data="{&quot;elementType&quot;:&quot;letter&quot;,&quot;baseline&quot;:57.958984375,&quot;baselineProportion&quot;:0.9858803986710963,&quot;fontSize&quot;:100}"></path><path d="M187.12676,73.66671c0.48733,0 0.86806,0.13199 1.14219,0.39596c0.27413,0.26397 0.41119,0.57871 0.41119,0.94421c0,0.34519 -0.13706,0.6447 -0.41119,0.89852c-0.27413,0.25382 -0.6447,0.38073 -1.11173,0.38073l-4.62967,0l0,30.42788l13.91946,0c0.26397,-0.02031 0.46703,-0.05584 0.60917,-0.1066c0.14214,-0.05076 0.2792,-0.15737 0.41119,-0.31981c0.13199,-0.16244 0.20813,-0.39596 0.22844,-0.70054l1.03558,-8.4065c0.06092,-0.42642 0.23351,-0.75131 0.51779,-0.97467c0.28428,-0.22336 0.61932,-0.33504 1.00513,-0.33504c0.42642,0 0.79192,0.13199 1.0965,0.39596c0.30458,0.26397 0.45688,0.62947 0.45688,1.0965l0,0.18275l-0.91375,9.77713c-0.08122,0.58886 -0.30966,1.07112 -0.68531,1.44677c-0.37565,0.37565 -0.87822,0.56348 -1.50769,0.56348l-27.26021,0c-0.48733,0 -0.86806,-0.12691 -1.14219,-0.38073c-0.27413,-0.25382 -0.41119,-0.56348 -0.41119,-0.92898c0,-0.34519 0.13706,-0.64978 0.41119,-0.91375c0.27413,-0.26397 0.6447,-0.39596 1.11173,-0.39596l8.19329,0l0,-30.42788l-6.91404,0c-0.46703,0 -0.83253,-0.12691 -1.0965,-0.38073c-0.26397,-0.25382 -0.39596,-0.55333 -0.39596,-0.89852c0,-0.3655 0.13706,-0.68024 0.41119,-0.94421c0.27413,-0.26397 0.6447,-0.39596 1.11173,-0.39596l14.40679,0z" data-paper-data="{&quot;elementType&quot;:&quot;letter&quot;,&quot;baseline&quot;:57.177734375,&quot;baselineProportion&quot;:1,&quot;fontSize&quot;:100}"></path><path d="M228.21311,96.02313c0,0.50764 -0.11168,0.89344 -0.33504,1.15742c-0.22336,0.26397 -0.49749,0.39596 -0.82238,0.39596c-0.30458,0 -0.57871,-0.11676 -0.82238,-0.35027c-0.24367,-0.23351 -0.37565,-0.55333 -0.39596,-0.95944l-0.39596,-4.50783l-9.92942,0l0,14.9855l18.73188,0l0.48733,-7.64504c0.02031,-0.34519 0.16244,-0.62947 0.42642,-0.85283c0.26397,-0.22336 0.56856,-0.33504 0.91375,-0.33504c0.34519,0 0.6447,0.13706 0.89852,0.41119c0.25382,0.27413 0.38073,0.66501 0.38073,1.17265l0,8.22375c0,0.50764 -0.15737,0.9036 -0.4721,1.18788c-0.31474,0.28428 -0.72592,0.42642 -1.23356,0.42642l-28.20442,0c-0.48733,0 -0.86806,-0.13199 -1.14219,-0.39596c-0.27413,-0.26397 -0.41119,-0.56856 -0.41119,-0.91375c0,-0.34519 0.13706,-0.6447 0.41119,-0.89852c0.27413,-0.25382 0.6447,-0.38073 1.11173,-0.38073l5.17792,0l0,-30.45834l-4.11188,0c-0.46703,0 -0.82745,-0.12691 -1.08127,-0.38073c-0.25382,-0.25382 -0.38073,-0.55333 -0.38073,-0.89852c0,-0.3655 0.13706,-0.68024 0.41119,-0.94421c0.27413,-0.26397 0.6447,-0.39596 1.11173,-0.39596l26.74242,0c0.50764,0 0.91883,0.14722 1.23356,0.44165c0.31474,0.29443 0.4721,0.69547 0.4721,1.2031l0,8.22375c0,0.42642 -0.12183,0.75638 -0.3655,0.9899c-0.24367,0.23351 -0.52794,0.35027 -0.85283,0.35027c-0.32489,0 -0.61424,-0.10153 -0.86806,-0.30458c-0.25382,-0.20306 -0.39088,-0.48733 -0.41119,-0.85283l-0.42642,-7.43183l-18.54913,0l0,13.12754l9.92942,0l0.39596,-4.05096c0.04061,-0.42642 0.17767,-0.76146 0.41119,-1.00513c0.23351,-0.24367 0.50256,-0.3655 0.80715,-0.3655c0.32489,0 0.59901,0.13706 0.82238,0.41119c0.22336,0.27413 0.33504,0.67516 0.33504,1.2031l0,10.41675z" data-paper-data="{&quot;elementType&quot;:&quot;letter&quot;,&quot;baseline&quot;:57.177734375,&quot;baselineProportion&quot;:1,&quot;fontSize&quot;:100}"></path><path d="M257.60346,75.79879c-2.59911,0 -4.62967,0.58378 -6.09167,1.75135c-1.462,1.16757 -2.193,2.76663 -2.193,4.79719c0,0.58886 0.05584,1.12188 0.16752,1.59906c0.11168,0.47718 0.23351,0.88837 0.3655,1.23356c0.13199,0.34519 0.39596,0.68531 0.79192,1.02035c0.39596,0.33504 0.71577,0.59394 0.95944,0.77669c0.24367,0.18275 0.70562,0.41626 1.38585,0.70054c0.68024,0.28428 1.2031,0.49241 1.5686,0.6244c0.3655,0.13199 1.02543,0.36042 1.97979,0.68531l4.14233,1.43154c1.58383,0.54825 2.90877,1.09142 3.97481,1.62952c1.06604,0.5381 2.02548,1.1828 2.87831,1.9341c0.85283,0.75131 1.47723,1.61429 1.87319,2.58896c0.39596,0.97467 0.59394,2.10163 0.59394,3.38088c0,1.74628 -0.30458,3.27427 -0.91375,4.58398c-0.60917,1.30971 -1.44677,2.34022 -2.51281,3.09152c-1.06604,0.75131 -2.24884,1.30971 -3.5484,1.67521c-1.29956,0.3655 -2.71079,0.54825 -4.23371,0.54825c-1.72597,0 -3.54332,-0.33504 -5.45204,-1.00513c-1.90872,-0.67008 -3.40118,-1.57368 -4.47738,-2.71079c0,2.47728 -0.47718,3.71592 -1.43154,3.71592c-0.52794,0 -0.9036,-0.16244 -1.12696,-0.48733c-0.22336,-0.32489 -0.33504,-0.91375 -0.33504,-1.76658l0,-9.56392c0,-0.46703 0.12691,-0.82238 0.38073,-1.06604c0.25382,-0.24367 0.57363,-0.3655 0.95944,-0.3655c0.38581,0 0.71577,0.13199 0.9899,0.39596c0.27413,0.26397 0.41119,0.62947 0.41119,1.0965l0,3.62454c0,1.31986 1.07112,2.56865 3.21335,3.74638c2.14224,1.17772 4.46215,1.76658 6.95973,1.76658c2.41636,0 4.386,-0.57871 5.90892,-1.73613c1.52292,-1.15742 2.28438,-2.96461 2.28438,-5.42158c0,-0.95436 -0.14722,-1.78689 -0.44165,-2.49758c-0.29443,-0.71069 -0.76653,-1.33001 -1.41631,-1.85796c-0.64978,-0.52794 -1.36555,-0.97467 -2.14731,-1.34017c-0.78176,-0.3655 -1.78181,-0.76146 -3.00015,-1.18788l-4.99517,-1.70567c-1.11681,-0.38581 -2.04071,-0.731 -2.77171,-1.03558c-0.731,-0.30458 -1.50769,-0.71069 -2.33006,-1.21833c-0.82238,-0.50764 -1.46708,-1.05081 -1.9341,-1.62952c-0.46703,-0.57871 -0.85791,-1.29956 -1.17265,-2.16254c-0.31474,-0.86299 -0.4721,-1.84273 -0.4721,-2.93923c0,-2.924 1.00005,-5.20838 3.00015,-6.85313c2.0001,-1.64475 4.50276,-2.46713 7.50798,-2.46713c4.18294,0 7.12725,0.93406 8.83292,2.80217c0,-1.86811 0.52794,-2.80217 1.58383,-2.80217c0.42642,0 0.73608,0.16244 0.92898,0.48733c0.1929,0.32489 0.28935,0.87314 0.28935,1.64475l0,7.70596c0,0.52794 -0.13199,0.92898 -0.39596,1.2031c-0.26397,0.27413 -0.59901,0.41119 -1.00513,0.41119c-0.3655,0 -0.68531,-0.12691 -0.95944,-0.38073c-0.27413,-0.25382 -0.41119,-0.60409 -0.41119,-1.05081l0,-2.77171c-0.12183,-0.99497 -0.61932,-1.85796 -1.49246,-2.58896c-0.87314,-0.731 -1.88842,-1.25387 -3.04583,-1.5686c-1.15742,-0.31474 -2.3656,-0.4721 -3.62454,-0.4721z" data-paper-data="{&quot;elementType&quot;:&quot;letter&quot;,&quot;baseline&quot;:57.958984375,&quot;baselineProportion&quot;:0.9858803986710963,&quot;fontSize&quot;:100}"></path></g></g><g data-paper-data="{&quot;baseline&quot;:57.177734375,&quot;elementType&quot;:&quot;row&quot;}"><g data-paper-data="{&quot;baselineProportion&quot;:0.9865206402695872,&quot;fontSize&quot;:100,&quot;baseline&quot;:57.177734375,&quot;elementType&quot;:&quot;word&quot;}"><path d="M31.49246,115.27593c-0.46703,0 -0.83253,-0.12691 -1.0965,-0.38073c-0.26397,-0.25382 -0.39596,-0.55333 -0.39596,-0.89852c0,-0.3655 0.13706,-0.68024 0.41119,-0.94421c0.27413,-0.26397 0.6447,-0.39596 1.11173,-0.39596l8.74154,0c0.56856,0 0.97467,0.24367 1.21833,0.731l14.80275,29.0268l0,-27.13838l-4.53829,0c-0.46703,0 -0.83253,-0.12691 -1.0965,-0.38073c-0.26397,-0.25382 -0.39596,-0.55333 -0.39596,-0.89852c0,-0.3655 0.13706,-0.68024 0.41119,-0.94421c0.27413,-0.26397 0.65485,-0.39596 1.14219,-0.39596l10.26446,0c0.46703,0 0.8376,0.13199 1.11173,0.39596c0.27413,0.26397 0.41119,0.57871 0.41119,0.94421c0,0.34519 -0.12691,0.6447 -0.38073,0.89852c-0.25382,0.25382 -0.61424,0.38073 -1.08127,0.38073l-2.924,0l0,31.61575c0,0.62947 -0.14214,1.10665 -0.42642,1.43154c-0.28428,0.32489 -0.63963,0.48733 -1.06604,0.48733c-0.731,0 -1.29956,-0.38581 -1.70567,-1.15742l-16.84346,-32.34675l0,30.39742l4.20325,0c0.46703,0 0.83253,0.13199 1.0965,0.39596c0.26397,0.26397 0.39596,0.56856 0.39596,0.91375c0,0.3655 -0.13199,0.67516 -0.39596,0.92898c-0.26397,0.25382 -0.63963,0.38073 -1.12696,0.38073l-10.90408,0c-0.48733,0 -0.86299,-0.12691 -1.12696,-0.38073c-0.26397,-0.25382 -0.39596,-0.56348 -0.39596,-0.92898c0,-0.34519 0.13199,-0.64978 0.39596,-0.91375c0.26397,-0.26397 0.62947,-0.39596 1.0965,-0.39596l3.83775,0l0,-30.42788l-4.7515,0z" data-paper-data="{&quot;elementType&quot;:&quot;letter&quot;,&quot;baseline&quot;:57.177734375,&quot;baselineProportion&quot;:0.9865206402695872,&quot;fontSize&quot;:100}"></path></g></g><g data-paper-data="{&quot;baseline&quot;:57.958984375,&quot;elementType&quot;:&quot;row&quot;}"><g data-paper-data="{&quot;baselineProportion&quot;:0.9858803986710963,&quot;fontSize&quot;:100,&quot;baseline&quot;:57.958984375,&quot;elementType&quot;:&quot;word&quot;}"><path d="M41.63508,153.7784c-2.59911,0 -4.62967,0.58378 -6.09167,1.75135c-1.462,1.16757 -2.193,2.76663 -2.193,4.79719c0,0.58886 0.05584,1.12188 0.16752,1.59906c0.11168,0.47718 0.23351,0.88837 0.3655,1.23356c0.13199,0.34519 0.39596,0.68531 0.79192,1.02035c0.39596,0.33504 0.71577,0.59394 0.95944,0.77669c0.24367,0.18275 0.70562,0.41626 1.38585,0.70054c0.68024,0.28428 1.2031,0.49241 1.5686,0.6244c0.3655,0.13199 1.02543,0.36042 1.97979,0.68531l4.14233,1.43154c1.58383,0.54825 2.90877,1.09142 3.97481,1.62952c1.06604,0.5381 2.02548,1.1828 2.87831,1.9341c0.85283,0.75131 1.47723,1.61429 1.87319,2.58896c0.39596,0.97467 0.59394,2.10163 0.59394,3.38088c0,1.74628 -0.30458,3.27427 -0.91375,4.58398c-0.60917,1.30971 -1.44677,2.34022 -2.51281,3.09152c-1.06604,0.75131 -2.24884,1.30971 -3.5484,1.67521c-1.29956,0.3655 -2.71079,0.54825 -4.23371,0.54825c-1.72597,0 -3.54332,-0.33504 -5.45204,-1.00513c-1.90872,-0.67008 -3.40118,-1.57368 -4.47738,-2.71079c0,2.47728 -0.47718,3.71592 -1.43154,3.71592c-0.52794,0 -0.9036,-0.16244 -1.12696,-0.48733c-0.22336,-0.32489 -0.33504,-0.91375 -0.33504,-1.76658l0,-9.56392c0,-0.46703 0.12691,-0.82238 0.38073,-1.06604c0.25382,-0.24367 0.57363,-0.3655 0.95944,-0.3655c0.38581,0 0.71577,0.13199 0.9899,0.39596c0.27413,0.26397 0.41119,0.62947 0.41119,1.0965l0,3.62454c0,1.31986 1.07112,2.56865 3.21335,3.74638c2.14224,1.17772 4.46215,1.76658 6.95973,1.76658c2.41636,0 4.386,-0.57871 5.90892,-1.73613c1.52292,-1.15742 2.28438,-2.96461 2.28438,-5.42158c0,-0.95436 -0.14722,-1.78689 -0.44165,-2.49758c-0.29443,-0.71069 -0.76653,-1.33001 -1.41631,-1.85796c-0.64978,-0.52794 -1.36555,-0.97467 -2.14731,-1.34017c-0.78176,-0.3655 -1.78181,-0.76146 -3.00015,-1.18788l-4.99517,-1.70567c-1.11681,-0.38581 -2.04071,-0.731 -2.77171,-1.03558c-0.731,-0.30458 -1.50769,-0.71069 -2.33006,-1.21833c-0.82238,-0.50764 -1.46708,-1.05081 -1.9341,-1.62952c-0.46703,-0.57871 -0.85791,-1.29956 -1.17265,-2.16254c-0.31474,-0.86299 -0.4721,-1.84273 -0.4721,-2.93923c0,-2.924 1.00005,-5.20838 3.00015,-6.85313c2.0001,-1.64475 4.50276,-2.46713 7.50798,-2.46713c4.18294,0 7.12725,0.93406 8.83292,2.80217c0,-1.86811 0.52794,-2.80217 1.58383,-2.80217c0.42642,0 0.73608,0.16244 0.92898,0.48733c0.1929,0.32489 0.28935,0.87314 0.28935,1.64475l0,7.70596c0,0.52794 -0.13199,0.92898 -0.39596,1.2031c-0.26397,0.27413 -0.59901,0.41119 -1.00513,0.41119c-0.3655,0 -0.68531,-0.12691 -0.95944,-0.38073c-0.27413,-0.25382 -0.41119,-0.60409 -0.41119,-1.05081l0,-2.77171c-0.12183,-0.99497 -0.61932,-1.85796 -1.49246,-2.58896c-0.87314,-0.731 -1.88842,-1.25387 -3.04583,-1.5686c-1.15742,-0.31474 -2.3656,-0.4721 -3.62454,-0.4721z" data-paper-data="{&quot;elementType&quot;:&quot;letter&quot;,&quot;baseline&quot;:57.958984375,&quot;baselineProportion&quot;:0.9858803986710963,&quot;fontSize&quot;:100}"></path><path d="M61.27876,187.31303c-0.46703,0 -0.8376,-0.13199 -1.11173,-0.39596c-0.27413,-0.26397 -0.41119,-0.57871 -0.41119,-0.94421c0,-0.34519 0.12691,-0.6447 0.38073,-0.89852c0.25382,-0.25382 0.61424,-0.38073 1.08127,-0.38073l3.77683,0l0,-30.42788l-3.2895,0c-0.48733,0 -0.86299,-0.12691 -1.12696,-0.38073c-0.26397,-0.25382 -0.39596,-0.56348 -0.39596,-0.92898c0,-0.34519 0.13706,-0.64978 0.41119,-0.91375c0.27413,-0.26397 0.6447,-0.39596 1.11173,-0.39596l9.19842,0c0.46703,0 0.8376,0.13199 1.11173,0.39596c0.27413,0.26397 0.41119,0.57871 0.41119,0.94421c0,0.34519 -0.12691,0.6447 -0.38073,0.89852c-0.25382,0.25382 -0.61424,0.38073 -1.08127,0.38073l-3.04583,0l0,13.61488l16.4475,0l0,-13.61488l-3.04583,0c-0.46703,0 -0.82745,-0.12691 -1.08127,-0.38073c-0.25382,-0.25382 -0.38073,-0.55333 -0.38073,-0.89852c0,-0.3655 0.13706,-0.68024 0.41119,-0.94421c0.27413,-0.26397 0.6447,-0.39596 1.11173,-0.39596l8.95475,0c0.46703,0 0.8376,0.12691 1.11173,0.38073c0.27413,0.25382 0.41119,0.54317 0.41119,0.86806c0,0.3655 -0.13706,0.68531 -0.41119,0.95944c-0.27413,0.27413 -0.6447,0.41119 -1.11173,0.41119l-3.04583,0l0,30.42788l3.04583,0c0.48733,0 0.86299,0.12691 1.12696,0.38073c0.26397,0.25382 0.39596,0.56348 0.39596,0.92898c0,0.34519 -0.13706,0.64978 -0.41119,0.91375c-0.27413,0.26397 -0.6447,0.39596 -1.11173,0.39596l-8.95475,0c-0.46703,0 -0.8376,-0.13199 -1.11173,-0.39596c-0.27413,-0.26397 -0.41119,-0.57871 -0.41119,-0.94421c0,-0.34519 0.12691,-0.6447 0.38073,-0.89852c0.25382,-0.25382 0.61424,-0.38073 1.08127,-0.38073l3.04583,0l0,-14.37634l-16.4475,0l0,14.37634l3.04583,0c0.46703,0 0.82745,0.12183 1.08127,0.3655c0.25382,0.24367 0.38073,0.52794 0.38073,0.85283c0,0.38581 -0.13706,0.71577 -0.41119,0.9899c-0.27413,0.27413 -0.6447,0.41119 -1.11173,0.41119l-9.62483,0z" data-paper-data="{&quot;elementType&quot;:&quot;letter&quot;,&quot;baseline&quot;:57.177734375,&quot;baselineProportion&quot;:1,&quot;fontSize&quot;:100}"></path><path d="M101.45136,187.31303c-0.48733,0 -0.86806,-0.12691 -1.14219,-0.38073c-0.27413,-0.25382 -0.41119,-0.56348 -0.41119,-0.92898c0,-0.34519 0.13706,-0.64978 0.41119,-0.91375c0.27413,-0.26397 0.6447,-0.39596 1.11173,-0.39596l9.28979,0l0,-30.42788l-9.28979,0c-0.46703,0 -0.8376,-0.12691 -1.11173,-0.38073c-0.27413,-0.25382 -0.41119,-0.55333 -0.41119,-0.89852c0,-0.3655 0.13706,-0.68024 0.41119,-0.94421c0.27413,-0.26397 0.65485,-0.39596 1.14219,-0.39596l20.86396,0c0.46703,0 0.8376,0.13199 1.11173,0.39596c0.27413,0.26397 0.41119,0.57871 0.41119,0.94421c0,0.34519 -0.13199,0.6447 -0.39596,0.89852c-0.26397,0.25382 -0.62947,0.38073 -1.0965,0.38073l-8.71108,0l0,30.42788l8.71108,0c0.46703,0 0.83253,0.13199 1.0965,0.39596c0.26397,0.26397 0.39596,0.56856 0.39596,0.91375c0,0.3655 -0.13199,0.67516 -0.39596,0.92898c-0.26397,0.25382 -0.63963,0.38073 -1.12696,0.38073l-20.86396,0z" data-paper-data="{&quot;elementType&quot;:&quot;letter&quot;,&quot;baseline&quot;:57.177734375,&quot;baselineProportion&quot;:1,&quot;fontSize&quot;:100}"></path><path d="M133.49158,162.51994c-0.02031,0.44672 -0.15229,0.78684 -0.39596,1.02035c-0.24367,0.23351 -0.52794,0.35027 -0.85283,0.35027c-0.38581,0 -0.731,-0.14722 -1.03558,-0.44165c-0.30458,-0.29443 -0.45688,-0.69547 -0.45688,-1.2031l0,-8.95475c0,-1.0965 0.42642,-1.64475 1.27925,-1.64475l27.89984,0c0.81222,0 1.21833,0.54825 1.21833,1.64475l0,8.95475c0,0.50764 -0.13706,0.89852 -0.41119,1.17265c-0.27413,0.27413 -0.60409,0.41119 -0.9899,0.41119c-0.34519,0 -0.64978,-0.11676 -0.91375,-0.35027c-0.26397,-0.23351 -0.40611,-0.55333 -0.42642,-0.95944l-0.30458,-8.25421l-10.72133,0l0,30.42788l7.37092,0c0.46703,0 0.83253,0.12691 1.0965,0.38073c0.26397,0.25382 0.39596,0.55333 0.39596,0.89852c0,0.3655 -0.13706,0.68024 -0.41119,0.94421c-0.27413,0.26397 -0.65485,0.39596 -1.14219,0.39596l-17.544,0c-0.48733,0 -0.87314,-0.13199 -1.15742,-0.39596c-0.28428,-0.26397 -0.42642,-0.57871 -0.42642,-0.94421c0,-0.34519 0.13706,-0.6447 0.41119,-0.89852c0.27413,-0.25382 0.6447,-0.38073 1.11173,-0.38073l7.37092,0l0,-30.42788l-10.5995,0l-0.3655,8.25421z" data-paper-data="{&quot;elementType&quot;:&quot;letter&quot;,&quot;baseline&quot;:57.177734375,&quot;baselineProportion&quot;:1,&quot;fontSize&quot;:100}"></path></g></g><g data-paper-data="{&quot;baseline&quot;:57.958984375,&quot;elementType&quot;:&quot;row&quot;}"><g data-paper-data="{&quot;baselineProportion&quot;:0.9858803986710963,&quot;fontSize&quot;:100,&quot;baseline&quot;:57.958984375,&quot;elementType&quot;:&quot;word&quot;}"><path d="M57.89984,215.70333c0,1.84781 -0.39088,3.4621 -1.17265,4.84288c-0.78176,1.38078 -1.87826,2.48235 -3.2895,3.30473c-1.41124,0.82238 -3.02045,1.43662 -4.82765,1.84273c-1.80719,0.40611 -3.80729,0.60917 -6.00029,0.60917l-10.90408,0c-0.48733,0 -0.86806,-0.12691 -1.14219,-0.38073c-0.27413,-0.25382 -0.41119,-0.56348 -0.41119,-0.92898c0,-0.34519 0.13706,-0.64978 0.41119,-0.91375c0.27413,-0.26397 0.6447,-0.39596 1.11173,-0.39596l4.87333,0l0,-30.42788l-5.05608,0c-0.46703,0 -0.83253,-0.13199 -1.0965,-0.39596c-0.26397,-0.26397 -0.39596,-0.57871 -0.39596,-0.94421c0,-0.34519 0.12691,-0.6447 0.38073,-0.89852c0.25382,-0.25382 0.61424,-0.38073 1.08127,-0.38073l10.84317,0c8.42681,0 12.64021,2.86308 12.64021,8.58925c0,1.78689 -0.4721,3.2895 -1.41631,4.50783c-0.94421,1.21833 -2.13716,2.04071 -3.57885,2.46713c2.35544,0.34519 4.26924,1.29956 5.7414,2.86308c1.47215,1.56353 2.20823,3.77683 2.20823,6.63992 M54.97584,215.24646c0,-1.05589 -0.13706,-1.97979 -0.41119,-2.77171c-0.27413,-0.79192 -0.69547,-1.44169 -1.26402,-1.94933c-0.56856,-0.50764 -1.17772,-0.92898 -1.8275,-1.26402c-0.64978,-0.33504 -1.44677,-0.57871 -2.39098,-0.731c-0.94421,-0.15229 -1.83765,-0.2589 -2.68033,-0.31981c-0.84268,-0.06092 -1.83258,-0.09138 -2.96969,-0.09138l-3.95958,0l0,15.56421l3.22858,0c1.86811,0 3.52301,-0.14214 4.96471,-0.42642c1.44169,-0.28428 2.72602,-0.74623 3.85298,-1.38585c1.12696,-0.63963 1.98487,-1.51276 2.57373,-2.61942c0.58886,-1.10665 0.88329,-2.44174 0.88329,-4.00527 M52.32596,199.3472c0,-2.193 -0.8376,-3.75653 -2.51281,-4.69058c-1.67521,-0.93406 -4.04588,-1.40108 -7.11202,-1.40108l-3.22858,0l0,12.54883l3.95958,0c2.47728,0 4.5789,-0.5381 6.30488,-1.61429c1.72597,-1.07619 2.58896,-2.69049 2.58896,-4.84288z" data-paper-data="{&quot;elementType&quot;:&quot;letter&quot;,&quot;baseline&quot;:57.177734375,&quot;baselineProportion&quot;:1,&quot;fontSize&quot;:100}"></path><path d="M78.85322,190.63612c0.48733,0 0.86806,0.13199 1.14219,0.39596c0.27413,0.26397 0.41119,0.57871 0.41119,0.94421c0,0.34519 -0.13706,0.6447 -0.41119,0.89852c-0.27413,0.25382 -0.6447,0.38073 -1.11173,0.38073l-4.62967,0l0,30.42788l13.91946,0c0.26397,-0.02031 0.46703,-0.05584 0.60917,-0.1066c0.14214,-0.05076 0.2792,-0.15737 0.41119,-0.31981c0.13199,-0.16244 0.20813,-0.39596 0.22844,-0.70054l1.03558,-8.4065c0.06092,-0.42642 0.23351,-0.75131 0.51779,-0.97467c0.28428,-0.22336 0.61932,-0.33504 1.00513,-0.33504c0.42642,0 0.79192,0.13199 1.0965,0.39596c0.30458,0.26397 0.45688,0.62947 0.45688,1.0965l0,0.18275l-0.91375,9.77713c-0.08122,0.58886 -0.30966,1.07112 -0.68531,1.44677c-0.37565,0.37565 -0.87822,0.56348 -1.50769,0.56348l-27.26021,0c-0.48733,0 -0.86806,-0.12691 -1.14219,-0.38073c-0.27413,-0.25382 -0.41119,-0.56348 -0.41119,-0.92898c0,-0.34519 0.13706,-0.64978 0.41119,-0.91375c0.27413,-0.26397 0.6447,-0.39596 1.11173,-0.39596l8.19329,0l0,-30.42788l-6.91404,0c-0.46703,0 -0.83253,-0.12691 -1.0965,-0.38073c-0.26397,-0.25382 -0.39596,-0.55333 -0.39596,-0.89852c0,-0.3655 0.13706,-0.68024 0.41119,-0.94421c0.27413,-0.26397 0.6447,-0.39596 1.11173,-0.39596l14.40679,0z" data-paper-data="{&quot;elementType&quot;:&quot;letter&quot;,&quot;baseline&quot;:57.177734375,&quot;baselineProportion&quot;:1,&quot;fontSize&quot;:100}"></path><path d="M120.12232,225.26725c0,0 -0.50764,0.2589 -1.52292,0.77669c-1.01528,0.51779 -2.77171,0.77669 -5.26929,0.77669c-2.49758,0 -4.76165,-0.51779 -6.79221,-1.55338c-2.03056,-1.03558 -3.67023,-2.41636 -4.91902,-4.14233c-1.24879,-1.72597 -2.20823,-3.66515 -2.87831,-5.81754c-0.67008,-2.15239 -1.00513,-4.39615 -1.00513,-6.73129c0,-2.33514 0.33504,-4.58906 1.00513,-6.76175c0.67008,-2.17269 1.62952,-4.13218 2.87831,-5.87846c1.24879,-1.74628 2.88847,-3.14736 4.91902,-4.20325c2.03056,-1.05589 4.29463,-1.58383 6.79221,-1.58383c2.49758,0 4.76165,0.52794 6.79221,1.58383c2.03056,1.05589 3.67023,2.45697 4.91902,4.20325c1.24879,1.74628 2.20823,3.70576 2.87831,5.87846c0.67008,2.17269 1.00513,4.42661 1.00513,6.76175c0,2.33514 -0.33504,4.5789 -1.00513,6.73129c-0.67008,2.15239 -1.62952,4.09157 -2.87831,5.81754c-1.24879,1.72597 -2.88847,3.10675 -4.91902,4.14233z M117.8684,193.65149c0,0 -0.35027,-0.14722 -1.05081,-0.44165c-0.70054,-0.29443 -1.86303,-0.44165 -3.48748,-0.44165c-1.62444,0 -3.13721,0.29443 -4.53829,0.88329c-1.40108,0.58886 -2.58896,1.39093 -3.56363,2.40621c-0.97467,1.01528 -1.81227,2.193 -2.51281,3.53317c-0.70054,1.34017 -1.21833,2.77171 -1.55338,4.29463c-0.33504,1.52292 -0.50256,3.08644 -0.50256,4.69058c0,1.98994 0.26905,3.90374 0.80715,5.7414c0.5381,1.83765 1.30971,3.49763 2.31483,4.97994c1.00513,1.48231 2.33514,2.67018 3.99004,3.56363c1.6549,0.89344 3.50779,1.34017 5.55865,1.34017c2.05086,0 3.90374,-0.44672 5.55865,-1.34017c1.6549,-0.89344 2.98492,-2.08132 3.99004,-3.56363c1.00513,-1.48231 1.77674,-3.14229 2.31483,-4.97994c0.5381,-1.83765 0.80715,-3.75145 0.80715,-5.7414c0,-1.60414 -0.16752,-3.16767 -0.50256,-4.69058c-0.33504,-1.52292 -0.85283,-2.95446 -1.55338,-4.29463c-0.70054,-1.34017 -1.53815,-2.51789 -2.51281,-3.53317c-0.97467,-1.01528 -2.16254,-1.81735 -3.56363,-2.40621" data-paper-data="{&quot;elementType&quot;:&quot;letter&quot;,&quot;baseline&quot;:57.958984375,&quot;baselineProportion&quot;:0.9858803986710963,&quot;fontSize&quot;:100}"></path><path d="M162.51838,210.76908l0,14.04129c0,0.54825 -0.14214,0.97467 -0.42642,1.27925c-0.28428,0.30458 -0.61932,0.45688 -1.00513,0.45688c-0.40611,0 -0.75638,-0.15737 -1.05081,-0.4721c-0.29443,-0.31474 -0.44165,-0.75638 -0.44165,-1.32494l0,-3.77683c-0.77161,1.72597 -2.22346,3.13213 -4.35554,4.21848c-2.13208,1.08635 -4.54845,1.62952 -7.24908,1.62952c-4.7312,0 -8.53849,-1.7209 -11.42188,-5.16269c-2.88339,-3.44179 -4.32508,-8.05623 -4.32508,-13.84331c0,-5.27945 1.44677,-9.54361 4.34031,-12.7925c2.89354,-3.24889 6.6856,-4.87333 11.37619,-4.87333c2.37575,0 4.5586,0.49241 6.54854,1.47723c1.98994,0.98482 3.40118,2.23869 4.23371,3.7616l0,-3.22858c0,-0.46703 0.14722,-0.8376 0.44165,-1.11173c0.29443,-0.27413 0.6447,-0.41119 1.05081,-0.41119c0.40611,0 0.75638,0.13706 1.05081,0.41119c0.29443,0.27413 0.44165,0.65485 0.44165,1.14219l0,8.92429c0,0.46703 -0.13706,0.82238 -0.41119,1.06604c-0.27413,0.24367 -0.60409,0.3655 -0.9899,0.3655c-0.81222,0 -1.29956,-0.47718 -1.462,-1.43154c-0.46703,-2.49758 -1.70059,-4.51291 -3.70069,-6.04598c-2.0001,-1.53307 -4.37077,-2.2996 -7.11202,-2.2996c-4.08142,0 -7.24908,1.40616 -9.503,4.21848c-2.25392,2.81232 -3.38088,6.4927 -3.38088,11.04115c0,4.99517 1.21833,8.93952 3.655,11.83306c2.43667,2.89354 5.50281,4.34031 9.19842,4.34031c3.02553,0 5.51804,-0.731 7.47752,-2.193c1.95949,-1.462 3.32504,-3.40118 4.09665,-5.81754l0,-5.42158l-3.77683,0c-0.46703,0 -0.8376,-0.13199 -1.11173,-0.39596c-0.27413,-0.26397 -0.41119,-0.57871 -0.41119,-0.94421c0,-0.34519 0.13199,-0.6447 0.39596,-0.89852c0.26397,-0.25382 0.62947,-0.38073 1.0965,-0.38073l8.65017,0c0.46703,0 0.83253,0.12691 1.0965,0.38073c0.26397,0.25382 0.39596,0.55333 0.39596,0.89852c0,0.3655 -0.13706,0.68024 -0.41119,0.94421c-0.27413,0.26397 -0.65485,0.39596 -1.14219,0.39596l-1.85796,0z" data-paper-data="{&quot;elementType&quot;:&quot;letter&quot;,&quot;baseline&quot;:57.958984375,&quot;baselineProportion&quot;:0.9858803986710963,&quot;fontSize&quot;:100}"></path></g></g></g></g></g></svg>